# xmcd
#
# Track frame offsets: 
#        150
#        14390
#        30313
#        45033
#        58791
#        76319
#        93212
#        103417
#        119010
#        137290
#        150979
#        169562
#        185244
#        198823
#        224009
#        235153
#
# Disc length: 3232 seconds
#
# Revision: 0
# Processed by: cddbd v1.5.2PL0 Copyright (c) Steve Scherf et al.
# Submitted via: ExactAudioCopy v1.0b1
#
DISCID=c90c9e10
DTITLE=Marili Machado - A Mercedes
DYEAR=2011
DGENRE=Tango
TTITLE0=Zamba del riego
TTITLE1=To recuerdo Amanda
TTITLE2=Belderrama
TTITLE3=Rio de camalotes
TTITLE4=Campana de palo
TTITLE5=Agosto en Tucamán
TTITLE6=Como urpillita perdida
TTITLE7=Guitarra dimelo tú
TTITLE8=La villerita
TTITLE9=Tristeza
TTITLE10=Otono en Mendoza
TTITLE11=Los pueblos de gesto antigua
TTITLE12=Cuánto trabajo
TTITLE13=Alfonsina y el mar
TTITLE14=Chayita del vidalero
TTITLE15=Guadalquivir - La mamancy
EXTD=
EXTT0=
EXTT1=
EXTT2=
EXTT3=
EXTT4=
EXTT5=
EXTT6=
EXTT7=
EXTT8=
EXTT9=
EXTT10=
EXTT11=
EXTT12=
EXTT13=
EXTT14=
EXTT15=
PLAYORDER=
